<?xml version="1.0" encoding="UTF-8"?><svg id="a" xmlns="http://www.w3.org/2000/svg" viewBox="0 0 1008.53 199.75"><defs><style>.b{fill:#f77823;}.c{fill:#fff;}</style></defs><g><path class="c" d="M23.82,133.78H92.24v19.96H0V6.31H89.19V26.27H23.82v43.58h61.29v19.75H23.82v44.19h0Z"/><path class="c" d="M164.52,99.57l36.45,54.17h-25.25l-25.45-37.67-24.23,37.67h-23.21l35.02-53.76-35.23-51.52h25.45l23.82,36.04,24.64-36.04h22.81l-34.82,51.11h0Z"/><path class="c" d="M218.07,48.46h20.16l1.22,11.2c9.37-8.76,21.38-13.44,35.23-13.44,22.2,0,38.89,13.85,38.89,52.33,0,41.54-19.96,57.63-43.58,57.63-12.62,0-21.99-4.28-29.32-10.18v50.91h-22.6V48.46h0Zm23.21,79.21c4.07,3.26,13.44,9.37,23.62,9.37,17.72,0,24.23-14.86,24.23-38.08s-7.33-33.6-22.2-33.6c-9.98,0-19.96,5.91-25.66,11.2v51.11h.01Z"/><path class="c" d="M360.81,153.74h-23.42V0h23.42V153.74Z"/><path class="c" d="M383.61,101.61c0-33.8,17.51-55.39,52.33-55.39s48.67,21.79,48.67,52.94c0,34.62-15.07,57.02-51.31,57.02s-49.69-23.21-49.69-54.57Zm76.56-1.22c0-26.27-8.55-35.23-25.05-35.23s-27.08,9.98-27.08,35.64,8.15,37.26,26.47,37.26c16.09,0,25.66-10.59,25.66-37.67h0Z"/><path class="c" d="M568.09,69.84c-13.24-1.63-28.1,3.05-36.86,10.79v73.1h-23.42V48.46h19.75l1.83,15.68c8.35-11.81,18.94-17.92,34.41-17.92,1.22,0,2.04,0,4.28,.2v23.42h0Z"/><path class="c" d="M660.74,131.54c0,5.7,1.02,8.15,6.31,8.15,1.83,0,3.67-.41,6.31-1.22l.81,13.85c-4.07,2.04-10.79,3.46-16.49,3.46-11,0-15.88-4.28-17.72-12.42-7.13,7.74-18.73,12.83-33.39,12.83-26.47,0-31.16-17.92-31.16-28.3,0-27.29,23.21-36.25,51.52-36.25,4.89,0,7.94,.2,10.79,.41v-7.94c0-12.83-2.85-20.16-18.33-20.16-12.83,0-17.1,5.29-19.34,16.29l-20.57-3.67c3.26-19.75,15.88-30.34,41.74-30.34s39.5,10.38,39.5,36.65v48.67h.02Zm-22.81-23.43c-2.04-.2-4.48-.41-9.77-.41-11.81,0-28.92,1.43-28.92,16.9,0,7.33,3.26,14.05,15.68,14.05,9.57,0,18.33-4.89,23.01-9.77v-20.77h0Z"/><path class="c" d="M783.12,153.74h-23.42V85.93c0-13.24-4.89-20.16-17.31-20.16-10.59,0-21.58,6.52-26.67,11.2v76.77h-23.42V48.46h20.77l1.02,11c9.37-7.53,21.99-13.24,36.45-13.24,22.81,0,32.58,12.01,32.58,35.84v71.68h0Z"/><path class="c" d="M881.26,54.57c3.67-8.55,9.77-13.85,17.51-13.85,3.46,0,5.29,.2,8.35,1.22v15.68c-6.52-.41-14.05,.41-19.55,2.04,6.11,6.31,9.37,15.68,9.37,24.23,0,23.82-19.55,37.47-45,37.47-6.92,0-12.83-.61-18.33-2.24-2.65,2.04-5.09,5.29-5.09,8.35,0,3.67,1.83,6.31,10.79,6.92l30.95,1.83c21.99,1.43,35.02,8.15,35.02,27.49,0,27.49-26.47,36.04-54.57,36.04-39.1,0-48.87-13.03-48.87-26.27,0-11,7.74-17.92,17.51-21.18v-.61c-7.74-2.65-12.42-7.74-12.42-15.88,0-9.57,7.13-15.68,14.86-21.58-9.37-5.29-15.48-15.68-15.48-29.12,0-22.81,17.1-38.89,45.41-38.89,12.22,0,22.4,2.24,29.53,8.35h.01Zm-15.68,102.43l-33.19-1.83c-5.5,3.87-8.76,8.55-8.76,14.25,0,8.55,7.33,12.83,27.29,12.83s30.34-4.28,30.34-13.85c0-6.52-2.85-10.79-15.68-11.4Zm-13.24-92.65c-13.24,0-23.21,5.7-23.21,19.34,0,12.22,6.72,19.75,23.01,19.75,13.44,0,22.81-7.33,22.81-19.34,0-13.24-8.55-19.75-22.6-19.75h-.01Z"/><path class="c" d="M915.06,101.2c0-38.08,22.81-54.98,50.3-54.98,30.54,0,43.17,19.34,43.17,46.63,0,4.28-.2,9.16-.61,14.05h-68.22c.61,22.2,11.2,30.14,26.47,30.14,13.44,0,19.14-6.31,21.58-17.1l19.96,4.89c-4.07,19.96-20.16,31.36-42.97,31.36-37.88,0-49.69-26.06-49.69-54.98h.01Zm69.23-10.6c0-17.92-6.31-25.86-20.36-25.86-11.81,0-22.81,7.13-23.82,25.86h44.18Z"/></g><g><path class="b" d="M473.27,101.74c0,23.81-17.7,43.11-39.54,43.11s-39.54-19.3-39.54-43.11,17.71-43.53,39.54-43.11c28.01,.54,39.54,19.3,39.54,43.11Z"/><path class="c" d="M430.73,76.18l21.71,21.71c2.33,2.33,2.33,6.11,0,8.44l-21.71,21.71c-3.76,3.76-10.19,1.1-10.19-4.22v-43.41c0-5.32,6.43-7.98,10.19-4.22h0Z"/></g></svg>