<?xml version="1.0" encoding="UTF-8"?><svg id="a" xmlns="http://www.w3.org/2000/svg" xmlns:xlink="http://www.w3.org/1999/xlink" viewBox="0 0 485.76 485.76"><defs><style>.e{fill:url(#d);}.f{fill:#f9a364;}.g{fill:#f77823;}.h,.i,.j{fill:#fff;}.k{fill:#80ff86;}.l{filter:url(#b);}.i{font-family:AdelleSansDevanagari-Thin, Adelle Sans Devanagari;font-size:190.41px;}.j{font-family:AdelleSansDevanagari-Semibold, Adelle Sans Devanagari;font-size:70.48px;font-weight:700;}</style><filter id="b" filterUnits="userSpaceOnUse"><feOffset dx="0" dy="10"/><feGaussianBlur result="c" stdDeviation="5"/><feFlood flood-color="#000" flood-opacity=".4"/><feComposite in2="c" operator="in"/><feComposite in="SourceGraphic"/></filter><linearGradient id="d" x1="0" y1="485.76" x2="485.76" y2="0" gradientTransform="matrix(1, 0, 0, 1, 0, 0)" gradientUnits="userSpaceOnUse"><stop offset="0" stop-color="#000"/><stop offset="0" stop-color="#e67229"/><stop offset=".05" stop-color="#e37530"/><stop offset="1" stop-color="#b3b3b3"/></linearGradient></defs><g class="l"><rect class="e" width="485.76" height="485.76"/><g><circle class="g" cx="237.34" cy="261.31" r="153.63"/><g><circle class="f" cx="250" cy="254.21" r="153.63"/><text class="i" transform="translate(188.8 229.99) rotate(104.66) scale(1.03 1) skewX(-1.12)"><tspan x="0" y="0">D</tspan></text><text class="j" transform="translate(162.84 157.36) rotate(102.28) scale(1.04 1) skewX(-.95)"><tspan x="0" y="0">(</tspan></text><text class="j" transform="translate(302.59 190.3) rotate(102.28) scale(1.04 1) skewX(-.95)"><tspan x="0" y="0">(</tspan></text><path class="h" d="M458.38,269.33c-4.12,31.49-31.44,53.88-61.02,50.01-29.35-3.84-14.88-116.15,14.25-114.12-19.42-62.1-84.7-112.49-150.91-121.16-65.72-8.61-139.23,24.1-173.48,78.94,.39,.04,.79,.08,1.18,.14,29.58,3.87,14.65,117.92-14.93,114.05-29.57-3.87-50.21-32.55-46.08-64.04,3.17-24.24,20.09-43.09,41.2-48.72,31.42-69.86,108.49-102.28,193.43-91.16,84,11,149.59,61.17,163,135.38,22.52,9.22,36.87,33.92,33.36,60.67Z"/><path class="k" d="M229.63,108.98s-37.62-19.34-27.27-40.05c1.18-2.35,46.78,11.21,65.12,39.69"/></g></g></g></svg>