<?xml version="1.0" encoding="UTF-8"?><svg id="a" xmlns="http://www.w3.org/2000/svg" viewBox="0 0 562.65 675"><defs><style>.b{fill:#f9a364;}.c{fill:#f77823;}.d{fill:#fff;}.e{fill:#ff8c42;}.f{fill:#3866af;}.g{fill:#80ff86;}</style></defs><path class="f" d="M518,210L0,675V0H456.24c29.37,0,57.55,12.36,76.88,34.48,59.19,67.73,16.28,150.07-15.12,175.52Z"/><g><path class="e" d="M42.23,404.66v-40.28h5.54l7.41,21.33h.11l7.35-21.33h5.6v40.28h-5.77v-24.49h-.11l-5.71,17.31h-2.89l-5.66-17.31h-.11v24.49h-5.77Z"/><path class="e" d="M92.35,364.38v31.22c0,1.32-.24,2.54-.71,3.65-.47,1.11-1.14,2.1-2.01,2.97-.87,.87-1.87,1.55-3,2.04-1.13,.49-2.34,.74-3.62,.74s-2.48-.25-3.59-.74c-1.11-.49-2.1-1.17-2.97-2.04-.87-.87-1.55-1.86-2.04-2.97-.49-1.11-.74-2.33-.74-3.65v-31.22h5.77v30.66c0,1.43,.34,2.49,1.02,3.17,.68,.68,1.53,1.02,2.55,1.02s1.87-.34,2.55-1.02c.68-.68,1.02-1.73,1.02-3.17v-30.66h5.77Z"/><path class="e" d="M116.44,375.98h-5.77v-1.3c0-1.32-.31-2.46-.93-3.42-.62-.96-1.67-1.44-3.14-1.44-.79,0-1.43,.15-1.92,.45-.49,.3-.89,.68-1.19,1.13-.3,.49-.51,1.05-.62,1.67-.11,.62-.17,1.27-.17,1.95,0,.79,.03,1.45,.08,1.98,.06,.53,.2,1,.42,1.41,.23,.42,.56,.77,.99,1.08,.43,.3,1.03,.6,1.78,.91l4.41,1.75c1.28,.49,2.32,1.07,3.11,1.73,.79,.66,1.41,1.42,1.87,2.29,.41,.91,.7,1.93,.85,3.08,.15,1.15,.23,2.46,.23,3.93,0,1.7-.17,3.27-.51,4.72-.34,1.45-.89,2.69-1.64,3.71-.79,1.06-1.83,1.89-3.11,2.49-1.28,.6-2.85,.9-4.69,.9-1.4,0-2.7-.25-3.9-.74-1.21-.49-2.24-1.17-3.11-2.04-.87-.87-1.56-1.88-2.06-3.03-.51-1.15-.76-2.4-.76-3.76v-2.15h5.77v1.81c0,1.06,.31,2.01,.93,2.86,.62,.85,1.67,1.27,3.14,1.27,.98,0,1.74-.14,2.29-.42,.55-.28,.97-.69,1.27-1.22,.3-.53,.48-1.16,.54-1.89s.08-1.56,.08-2.46c0-1.05-.04-1.92-.11-2.6-.08-.68-.23-1.23-.45-1.64-.26-.41-.61-.75-1.05-1.02-.43-.26-1.01-.55-1.73-.85l-4.13-1.7c-2.49-1.02-4.16-2.37-5.01-4.04-.85-1.68-1.27-3.78-1.27-6.31,0-1.51,.21-2.94,.62-4.3,.41-1.36,1.04-2.53,1.87-3.51,.79-.98,1.8-1.76,3.03-2.35,1.23-.58,2.69-.88,4.38-.88,1.43,0,2.74,.26,3.93,.79,1.19,.53,2.22,1.23,3.08,2.09,1.73,1.81,2.6,3.88,2.6,6.22v2.83Z"/><path class="e" d="M120.91,404.66v-40.28h5.77v40.28h-5.77Z"/><path class="e" d="M150.61,393.17v2.49c0,1.24-.24,2.42-.71,3.54-.47,1.11-1.12,2.1-1.95,2.97-.83,.87-1.8,1.56-2.91,2.06-1.11,.51-2.31,.76-3.59,.76-1.09,0-2.21-.15-3.34-.45s-2.15-.83-3.05-1.58c-.9-.75-1.65-1.73-2.23-2.91-.58-1.19-.88-2.71-.88-4.55v-22.17c0-1.32,.23-2.55,.68-3.68,.45-1.13,1.09-2.11,1.92-2.94,.83-.83,1.82-1.48,2.97-1.95,1.15-.47,2.42-.71,3.82-.71,2.72,0,4.92,.89,6.62,2.66,.83,.87,1.48,1.9,1.95,3.08,.47,1.19,.71,2.48,.71,3.87v2.26h-5.77v-1.92c0-1.13-.32-2.11-.96-2.94-.64-.83-1.51-1.24-2.6-1.24-1.43,0-2.39,.44-2.86,1.33-.47,.89-.71,2.01-.71,3.37v20.59c0,1.17,.25,2.15,.76,2.94,.51,.79,1.42,1.19,2.74,1.19,.38,0,.78-.07,1.22-.2,.43-.13,.84-.35,1.22-.65,.34-.3,.62-.72,.85-1.24,.23-.53,.34-1.19,.34-1.98v-1.98h5.77Z"/><path class="e" d="M195.75,364.38l-6,40.28h-5.43l-4.41-26.13h-.11l-4.36,26.13h-5.43l-6-40.28h6.11l2.88,25.57h.11l4.53-25.57h4.41l4.69,26.19h.11l2.77-26.19h6.11Z"/><path class="e" d="M199.54,404.66v-40.28h5.77v40.28h-5.77Z"/><path class="e" d="M214.7,404.66v-34.85h-6.67v-5.43h19.12v5.43h-6.67v34.85h-5.77Z"/><path class="e" d="M229.69,404.66v-40.28h5.77v17.25h7.13v-17.25h5.77v40.28h-5.77v-17.93h-7.13v17.93h-5.77Z"/><path class="e" d="M268.09,404.66v-34.85h-6.67v-5.43h19.12v5.43h-6.67v34.85h-5.77Z"/><path class="e" d="M277.37,404.66l8.99-40.28h4.81l8.99,40.28h-5.77l-1.7-8.66h-7.86l-1.7,8.66h-5.77Zm14.25-14.08l-2.83-14.59h-.11l-2.83,14.59h5.77Z"/><path class="e" d="M321.66,375.98h-5.77v-1.3c0-1.32-.31-2.46-.93-3.42-.62-.96-1.67-1.44-3.14-1.44-.79,0-1.43,.15-1.92,.45-.49,.3-.89,.68-1.19,1.13-.3,.49-.51,1.05-.62,1.67-.11,.62-.17,1.27-.17,1.95,0,.79,.03,1.45,.09,1.98,.06,.53,.2,1,.42,1.41,.23,.42,.56,.77,.99,1.08,.43,.3,1.03,.6,1.78,.91l4.41,1.75c1.28,.49,2.32,1.07,3.11,1.73,.79,.66,1.41,1.42,1.87,2.29,.41,.91,.7,1.93,.85,3.08s.23,2.46,.23,3.93c0,1.7-.17,3.27-.51,4.72-.34,1.45-.89,2.69-1.64,3.71-.79,1.06-1.83,1.89-3.11,2.49-1.28,.6-2.85,.9-4.69,.9-1.4,0-2.7-.25-3.9-.74-1.21-.49-2.24-1.17-3.11-2.04-.87-.87-1.56-1.88-2.06-3.03-.51-1.15-.76-2.4-.76-3.76v-2.15h5.77v1.81c0,1.06,.31,2.01,.93,2.86s1.67,1.27,3.14,1.27c.98,0,1.74-.14,2.29-.42,.54-.28,.97-.69,1.27-1.22,.3-.53,.48-1.16,.54-1.89s.08-1.56,.08-2.46c0-1.05-.04-1.92-.11-2.6-.08-.68-.23-1.23-.45-1.64-.26-.41-.61-.75-1.05-1.02-.43-.26-1.01-.55-1.73-.85l-4.13-1.7c-2.49-1.02-4.16-2.37-5.01-4.04-.85-1.68-1.27-3.78-1.27-6.31,0-1.51,.21-2.94,.62-4.3,.41-1.36,1.04-2.53,1.87-3.51,.79-.98,1.8-1.76,3.03-2.35,1.22-.58,2.69-.88,4.38-.88,1.43,0,2.74,.26,3.93,.79,1.19,.53,2.22,1.23,3.08,2.09,1.73,1.81,2.6,3.88,2.6,6.22v2.83Z"/><path class="e" d="M329.75,404.66v-34.85h-6.67v-5.43h19.12v5.43h-6.67v34.85h-5.77Z"/><path class="e" d="M344.74,404.66v-40.28h17.2v5.43h-11.43v11.82h9.96v5.43h-9.96v11.82h11.43v5.77h-17.2Z"/></g><g><path class="e" d="M42.23,471.01v-40.28h5.54l7.41,21.33h.11l7.35-21.33h5.6v40.28h-5.77v-24.49h-.11l-5.71,17.31h-2.89l-5.66-17.31h-.11v24.49h-5.77Z"/><path class="e" d="M92.35,430.74v31.22c0,1.32-.24,2.54-.71,3.65-.47,1.11-1.14,2.1-2.01,2.97-.87,.87-1.87,1.55-3,2.04-1.13,.49-2.34,.74-3.62,.74s-2.48-.25-3.59-.74c-1.11-.49-2.1-1.17-2.97-2.04-.87-.87-1.55-1.86-2.04-2.97-.49-1.11-.74-2.33-.74-3.65v-31.22h5.77v30.66c0,1.43,.34,2.49,1.02,3.17,.68,.68,1.53,1.02,2.55,1.02s1.87-.34,2.55-1.02c.68-.68,1.02-1.73,1.02-3.17v-30.66h5.77Z"/><path class="e" d="M116.44,442.33h-5.77v-1.3c0-1.32-.31-2.46-.93-3.42-.62-.96-1.67-1.44-3.14-1.44-.79,0-1.43,.15-1.92,.45-.49,.3-.89,.68-1.19,1.13-.3,.49-.51,1.05-.62,1.67-.11,.62-.17,1.27-.17,1.95,0,.79,.03,1.45,.08,1.98,.06,.53,.2,1,.42,1.41,.23,.42,.56,.77,.99,1.08,.43,.3,1.03,.6,1.78,.91l4.41,1.75c1.28,.49,2.32,1.07,3.11,1.73,.79,.66,1.41,1.42,1.87,2.29,.41,.91,.7,1.93,.85,3.08,.15,1.15,.23,2.46,.23,3.93,0,1.7-.17,3.27-.51,4.72-.34,1.45-.89,2.69-1.64,3.71-.79,1.06-1.83,1.89-3.11,2.49-1.28,.6-2.85,.9-4.69,.9-1.4,0-2.7-.25-3.9-.74-1.21-.49-2.24-1.17-3.11-2.04-.87-.87-1.56-1.88-2.06-3.03-.51-1.15-.76-2.4-.76-3.76v-2.15h5.77v1.81c0,1.06,.31,2.01,.93,2.86,.62,.85,1.67,1.27,3.14,1.27,.98,0,1.74-.14,2.29-.42,.55-.28,.97-.69,1.27-1.22,.3-.53,.48-1.16,.54-1.89s.08-1.56,.08-2.46c0-1.05-.04-1.92-.11-2.6-.08-.68-.23-1.23-.45-1.64-.26-.41-.61-.75-1.05-1.02-.43-.26-1.01-.55-1.73-.85l-4.13-1.7c-2.49-1.02-4.16-2.37-5.01-4.04-.85-1.68-1.27-3.78-1.27-6.31,0-1.51,.21-2.94,.62-4.3,.41-1.36,1.04-2.53,1.87-3.51,.79-.98,1.8-1.76,3.03-2.35,1.23-.58,2.69-.88,4.38-.88,1.43,0,2.74,.26,3.93,.79,1.19,.53,2.22,1.23,3.08,2.09,1.73,1.81,2.6,3.88,2.6,6.22v2.83Z"/><path class="e" d="M120.91,471.01v-40.28h5.77v40.28h-5.77Z"/><path class="e" d="M150.61,459.53v2.49c0,1.24-.24,2.42-.71,3.54-.47,1.11-1.12,2.1-1.95,2.97-.83,.87-1.8,1.56-2.91,2.06-1.11,.51-2.31,.76-3.59,.76-1.09,0-2.21-.15-3.34-.45s-2.15-.83-3.05-1.58c-.9-.75-1.65-1.73-2.23-2.91-.58-1.19-.88-2.71-.88-4.55v-22.17c0-1.32,.23-2.54,.68-3.68,.45-1.13,1.09-2.11,1.92-2.94,.83-.83,1.82-1.48,2.97-1.95,1.15-.47,2.42-.71,3.82-.71,2.72,0,4.92,.89,6.62,2.66,.83,.87,1.48,1.9,1.95,3.08,.47,1.19,.71,2.48,.71,3.88v2.26h-5.77v-1.92c0-1.13-.32-2.11-.96-2.94-.64-.83-1.51-1.24-2.6-1.24-1.43,0-2.39,.44-2.86,1.33-.47,.89-.71,2.01-.71,3.37v20.59c0,1.17,.25,2.15,.76,2.94,.51,.79,1.42,1.19,2.74,1.19,.38,0,.78-.07,1.22-.2,.43-.13,.84-.35,1.22-.65,.34-.3,.62-.72,.85-1.24,.23-.53,.34-1.19,.34-1.98v-1.98h5.77Z"/><path class="e" d="M195.75,430.74l-6,40.28h-5.43l-4.41-26.13h-.11l-4.36,26.13h-5.43l-6-40.28h6.11l2.88,25.57h.11l4.53-25.57h4.41l4.69,26.19h.11l2.77-26.19h6.11Z"/><path class="e" d="M199.54,471.01v-40.28h5.77v40.28h-5.77Z"/><path class="e" d="M214.7,471.01v-34.84h-6.67v-5.43h19.12v5.43h-6.67v34.84h-5.77Z"/><path class="e" d="M229.68,471.01v-40.28h5.77v17.25h7.13v-17.25h5.77v40.28h-5.77v-17.93h-7.13v17.93h-5.77Z"/><path class="e" d="M268.09,471.01v-34.84h-6.67v-5.43h19.12v5.43h-6.67v34.84h-5.77Z"/><path class="e" d="M277.37,471.01l8.99-40.28h4.81l8.99,40.28h-5.77l-1.7-8.66h-7.86l-1.7,8.66h-5.77Zm14.25-14.08l-2.83-14.59h-.11l-2.83,14.59h5.77Z"/><path class="e" d="M321.66,442.33h-5.77v-1.3c0-1.32-.31-2.46-.93-3.42s-1.67-1.44-3.14-1.44c-.79,0-1.43,.15-1.92,.45-.49,.3-.89,.68-1.19,1.13-.3,.49-.51,1.05-.62,1.67-.11,.62-.17,1.27-.17,1.95,0,.79,.03,1.45,.08,1.98,.06,.53,.2,1,.42,1.41,.23,.42,.56,.77,.99,1.08s1.03,.6,1.78,.91l4.41,1.75c1.28,.49,2.32,1.07,3.11,1.73,.79,.66,1.41,1.42,1.87,2.29,.42,.91,.7,1.93,.85,3.08,.15,1.15,.23,2.46,.23,3.93,0,1.7-.17,3.27-.51,4.72-.34,1.45-.89,2.69-1.64,3.71-.79,1.06-1.83,1.89-3.11,2.49-1.28,.6-2.85,.9-4.7,.9-1.4,0-2.7-.25-3.9-.74-1.21-.49-2.24-1.17-3.11-2.04-.87-.87-1.56-1.88-2.06-3.03-.51-1.15-.76-2.4-.76-3.76v-2.15h5.77v1.81c0,1.06,.31,2.01,.93,2.86,.62,.85,1.67,1.27,3.14,1.27,.98,0,1.74-.14,2.29-.42,.55-.28,.97-.69,1.27-1.22,.3-.53,.48-1.16,.54-1.89s.08-1.56,.08-2.46c0-1.05-.04-1.92-.11-2.6-.08-.68-.23-1.23-.45-1.64-.26-.41-.61-.75-1.05-1.02-.43-.26-1.01-.55-1.73-.85l-4.13-1.7c-2.49-1.02-4.16-2.37-5.01-4.04-.85-1.68-1.27-3.78-1.27-6.31,0-1.51,.21-2.94,.62-4.3s1.04-2.53,1.87-3.51c.79-.98,1.8-1.76,3.03-2.35,1.22-.58,2.69-.88,4.38-.88,1.43,0,2.74,.26,3.93,.79,1.19,.53,2.22,1.23,3.08,2.09,1.73,1.81,2.6,3.88,2.6,6.22v2.83Z"/><path class="e" d="M329.75,471.01v-34.84h-6.67v-5.43h19.12v5.43h-6.67v34.84h-5.77Z"/><path class="e" d="M344.74,471.01v-40.28h17.2v5.43h-11.43v11.82h9.96v5.43h-9.96v11.82h11.43v5.77h-17.2Z"/></g><g><path class="e" d="M42.23,338.3v-40.27h5.54l7.41,21.33h.11l7.35-21.33h5.6v40.27h-5.77v-24.49h-.11l-5.71,17.31h-2.89l-5.66-17.31h-.11v24.49h-5.77Z"/><path class="e" d="M92.35,298.03v31.22c0,1.32-.24,2.54-.71,3.65-.47,1.11-1.14,2.1-2.01,2.97s-1.87,1.55-3,2.04c-1.13,.49-2.34,.74-3.62,.74s-2.48-.25-3.59-.74c-1.11-.49-2.1-1.17-2.97-2.04-.87-.87-1.55-1.86-2.04-2.97-.49-1.11-.74-2.33-.74-3.65v-31.22h5.77v30.66c0,1.43,.34,2.49,1.02,3.17,.68,.68,1.53,1.02,2.55,1.02s1.87-.34,2.55-1.02c.68-.68,1.02-1.73,1.02-3.17v-30.66h5.77Z"/><path class="e" d="M116.44,309.62h-5.77v-1.3c0-1.32-.31-2.46-.93-3.42-.62-.96-1.67-1.44-3.14-1.44-.79,0-1.43,.15-1.92,.45-.49,.3-.89,.68-1.19,1.13-.3,.49-.51,1.05-.62,1.67-.11,.62-.17,1.27-.17,1.95,0,.79,.03,1.45,.08,1.98,.06,.53,.2,1,.42,1.41,.23,.42,.56,.77,.99,1.07,.43,.3,1.03,.6,1.78,.91l4.41,1.75c1.28,.49,2.32,1.07,3.11,1.73,.79,.66,1.41,1.42,1.87,2.29,.41,.91,.7,1.93,.85,3.08,.15,1.15,.23,2.46,.23,3.93,0,1.7-.17,3.27-.51,4.72-.34,1.45-.89,2.69-1.64,3.71-.79,1.06-1.83,1.89-3.11,2.49-1.28,.6-2.85,.9-4.69,.9-1.4,0-2.7-.25-3.9-.74-1.21-.49-2.24-1.17-3.11-2.04-.87-.87-1.56-1.88-2.06-3.03-.51-1.15-.76-2.4-.76-3.76v-2.15h5.77v1.81c0,1.06,.31,2.01,.93,2.86,.62,.85,1.67,1.27,3.14,1.27,.98,0,1.74-.14,2.29-.42,.55-.28,.97-.69,1.27-1.22,.3-.53,.48-1.16,.54-1.9s.08-1.56,.08-2.46c0-1.06-.04-1.92-.11-2.6-.08-.68-.23-1.23-.45-1.64-.26-.41-.61-.75-1.05-1.02-.43-.26-1.01-.55-1.73-.85l-4.13-1.7c-2.49-1.02-4.16-2.37-5.01-4.04-.85-1.68-1.27-3.78-1.27-6.31,0-1.51,.21-2.94,.62-4.3,.41-1.36,1.04-2.53,1.87-3.51,.79-.98,1.8-1.76,3.03-2.35,1.23-.58,2.69-.88,4.38-.88,1.43,0,2.74,.26,3.93,.79,1.19,.53,2.22,1.23,3.08,2.09,1.73,1.81,2.6,3.88,2.6,6.22v2.83Z"/><path class="e" d="M120.91,338.3v-40.27h5.77v40.27h-5.77Z"/><path class="e" d="M150.61,326.82v2.49c0,1.24-.24,2.42-.71,3.54-.47,1.11-1.12,2.1-1.95,2.97-.83,.87-1.8,1.56-2.91,2.06-1.11,.51-2.31,.76-3.59,.76-1.09,0-2.21-.15-3.34-.45-1.13-.3-2.15-.83-3.05-1.58-.9-.75-1.65-1.73-2.23-2.91-.58-1.19-.88-2.71-.88-4.55v-22.17c0-1.32,.23-2.55,.68-3.68,.45-1.13,1.09-2.11,1.92-2.94,.83-.83,1.82-1.48,2.97-1.95,1.15-.47,2.42-.71,3.82-.71,2.72,0,4.92,.89,6.62,2.66,.83,.87,1.48,1.9,1.95,3.08,.47,1.19,.71,2.48,.71,3.87v2.26h-5.77v-1.92c0-1.13-.32-2.11-.96-2.94-.64-.83-1.51-1.24-2.6-1.24-1.43,0-2.39,.44-2.86,1.33-.47,.89-.71,2.01-.71,3.37v20.59c0,1.17,.25,2.15,.76,2.94,.51,.79,1.42,1.19,2.74,1.19,.38,0,.78-.07,1.22-.2,.43-.13,.84-.35,1.22-.65,.34-.3,.62-.72,.85-1.24,.23-.53,.34-1.19,.34-1.98v-1.98h5.77Z"/><path class="e" d="M195.75,298.03l-6,40.27h-5.43l-4.41-26.13h-.11l-4.36,26.13h-5.43l-6-40.27h6.11l2.88,25.57h.11l4.53-25.57h4.41l4.69,26.19h.11l2.77-26.19h6.11Z"/><path class="e" d="M199.54,338.3v-40.27h5.77v40.27h-5.77Z"/><path class="e" d="M214.7,338.3v-34.84h-6.67v-5.43h19.12v5.43h-6.67v34.84h-5.77Z"/><path class="e" d="M229.69,338.3v-40.27h5.77v17.25h7.13v-17.25h5.77v40.27h-5.77v-17.93h-7.13v17.93h-5.77Z"/><path class="e" d="M268.09,338.3v-34.84h-6.67v-5.43h19.12v5.43h-6.67v34.84h-5.77Z"/><path class="e" d="M277.37,338.3l8.99-40.27h4.81l8.99,40.27h-5.77l-1.7-8.65h-7.86l-1.7,8.65h-5.77Zm14.25-14.08l-2.83-14.59h-.11l-2.83,14.59h5.77Z"/><path class="e" d="M321.66,309.62h-5.77v-1.3c0-1.32-.31-2.46-.93-3.42-.62-.96-1.67-1.44-3.14-1.44-.79,0-1.43,.15-1.92,.45-.49,.3-.89,.68-1.19,1.13-.3,.49-.51,1.05-.62,1.67-.11,.62-.17,1.27-.17,1.95,0,.79,.03,1.45,.09,1.98,.06,.53,.2,1,.42,1.41,.23,.42,.56,.77,.99,1.07,.43,.3,1.03,.6,1.78,.91l4.41,1.75c1.28,.49,2.32,1.07,3.11,1.73,.79,.66,1.41,1.42,1.87,2.29,.41,.91,.7,1.93,.85,3.08,.15,1.15,.23,2.46,.23,3.93,0,1.7-.17,3.27-.51,4.72-.34,1.45-.89,2.69-1.64,3.71-.79,1.06-1.83,1.89-3.11,2.49-1.28,.6-2.85,.9-4.69,.9-1.4,0-2.7-.25-3.9-.74-1.21-.49-2.24-1.17-3.11-2.04-.87-.87-1.56-1.88-2.06-3.03-.51-1.15-.76-2.4-.76-3.76v-2.15h5.77v1.81c0,1.06,.31,2.01,.93,2.86s1.67,1.27,3.14,1.27c.98,0,1.74-.14,2.29-.42,.54-.28,.97-.69,1.27-1.22,.3-.53,.48-1.16,.54-1.9s.08-1.56,.08-2.46c0-1.06-.04-1.92-.11-2.6-.08-.68-.23-1.23-.45-1.64-.26-.41-.61-.75-1.05-1.02-.43-.26-1.01-.55-1.73-.85l-4.13-1.7c-2.49-1.02-4.16-2.37-5.01-4.04-.85-1.68-1.27-3.78-1.27-6.31,0-1.51,.21-2.94,.62-4.3,.41-1.36,1.04-2.53,1.87-3.51,.79-.98,1.8-1.76,3.03-2.35,1.22-.58,2.69-.88,4.38-.88,1.43,0,2.74,.26,3.93,.79,1.19,.53,2.22,1.23,3.08,2.09,1.73,1.81,2.6,3.88,2.6,6.22v2.83Z"/><path class="e" d="M329.75,338.3v-34.84h-6.67v-5.43h19.12v5.43h-6.67v34.84h-5.77Z"/><path class="e" d="M344.74,338.3v-40.27h17.2v5.43h-11.43v11.82h9.96v5.43h-9.96v11.82h11.43v5.77h-17.2Z"/></g><g><path class="e" d="M42.23,537.37v-40.27h5.54l7.41,21.33h.11l7.35-21.33h5.6v40.27h-5.77v-24.49h-.11l-5.71,17.31h-2.89l-5.66-17.31h-.11v24.49h-5.77Z"/><path class="e" d="M92.35,497.09v31.22c0,1.32-.24,2.54-.71,3.65-.47,1.11-1.14,2.1-2.01,2.97-.87,.87-1.87,1.55-3,2.04-1.13,.49-2.34,.74-3.62,.74s-2.48-.25-3.59-.74c-1.11-.49-2.1-1.17-2.97-2.04-.87-.87-1.55-1.86-2.04-2.97-.49-1.11-.74-2.33-.74-3.65v-31.22h5.77v30.66c0,1.43,.34,2.49,1.02,3.17s1.53,1.02,2.55,1.02,1.87-.34,2.55-1.02c.68-.68,1.02-1.73,1.02-3.17v-30.66h5.77Z"/><path class="e" d="M116.44,508.69h-5.77v-1.3c0-1.32-.31-2.46-.93-3.42-.62-.96-1.67-1.44-3.14-1.44-.79,0-1.43,.15-1.92,.45-.49,.3-.89,.68-1.19,1.13-.3,.49-.51,1.05-.62,1.67s-.17,1.27-.17,1.95c0,.79,.03,1.45,.08,1.98s.2,1,.42,1.41,.56,.77,.99,1.07c.43,.3,1.03,.6,1.78,.91l4.41,1.75c1.28,.49,2.32,1.07,3.11,1.72,.79,.66,1.41,1.42,1.87,2.29,.41,.91,.7,1.93,.85,3.08,.15,1.15,.23,2.46,.23,3.93,0,1.7-.17,3.27-.51,4.72-.34,1.45-.89,2.69-1.64,3.71-.79,1.06-1.83,1.89-3.11,2.49-1.28,.6-2.85,.91-4.69,.91-1.4,0-2.7-.25-3.9-.74-1.21-.49-2.24-1.17-3.11-2.04-.87-.87-1.56-1.88-2.06-3.03-.51-1.15-.76-2.4-.76-3.76v-2.15h5.77v1.81c0,1.06,.31,2.01,.93,2.86,.62,.85,1.67,1.27,3.14,1.27,.98,0,1.74-.14,2.29-.42,.55-.28,.97-.69,1.27-1.22,.3-.53,.48-1.16,.54-1.9s.08-1.55,.08-2.46c0-1.06-.04-1.92-.11-2.6-.08-.68-.23-1.22-.45-1.64-.26-.41-.61-.75-1.05-1.02-.43-.26-1.01-.55-1.73-.85l-4.13-1.7c-2.49-1.02-4.16-2.37-5.01-4.04-.85-1.68-1.27-3.78-1.27-6.31,0-1.51,.21-2.94,.62-4.3,.41-1.36,1.04-2.53,1.87-3.51,.79-.98,1.8-1.76,3.03-2.35,1.23-.58,2.69-.88,4.38-.88,1.43,0,2.74,.26,3.93,.79,1.19,.53,2.22,1.23,3.08,2.09,1.73,1.81,2.6,3.88,2.6,6.22v2.83Z"/><path class="e" d="M120.91,537.37v-40.27h5.77v40.27h-5.77Z"/><path class="e" d="M150.61,525.88v2.49c0,1.25-.24,2.42-.71,3.54-.47,1.11-1.12,2.1-1.95,2.97-.83,.87-1.8,1.56-2.91,2.06-1.11,.51-2.31,.76-3.59,.76-1.09,0-2.21-.15-3.34-.45-1.13-.3-2.15-.83-3.05-1.58-.9-.75-1.65-1.73-2.23-2.91-.58-1.19-.88-2.71-.88-4.55v-22.17c0-1.32,.23-2.55,.68-3.68,.45-1.13,1.09-2.11,1.92-2.94,.83-.83,1.82-1.48,2.97-1.95,1.15-.47,2.42-.71,3.82-.71,2.72,0,4.92,.89,6.62,2.66,.83,.87,1.48,1.89,1.95,3.08,.47,1.19,.71,2.48,.71,3.87v2.26h-5.77v-1.92c0-1.13-.32-2.11-.96-2.94-.64-.83-1.51-1.25-2.6-1.25-1.43,0-2.39,.44-2.86,1.33-.47,.89-.71,2.01-.71,3.37v20.59c0,1.17,.25,2.15,.76,2.94,.51,.79,1.42,1.19,2.74,1.19,.38,0,.78-.07,1.22-.2,.43-.13,.84-.35,1.22-.65,.34-.3,.62-.72,.85-1.25,.23-.53,.34-1.19,.34-1.98v-1.98h5.77Z"/><path class="e" d="M195.75,497.09l-6,40.27h-5.43l-4.41-26.13h-.11l-4.36,26.13h-5.43l-6-40.27h6.11l2.88,25.57h.11l4.53-25.57h4.41l4.69,26.19h.11l2.77-26.19h6.11Z"/><path class="e" d="M199.54,537.37v-40.27h5.77v40.27h-5.77Z"/><path class="e" d="M214.7,537.37v-34.84h-6.67v-5.43h19.12v5.43h-6.67v34.84h-5.77Z"/><path class="e" d="M229.68,537.37v-40.27h5.77v17.25h7.13v-17.25h5.77v40.27h-5.77v-17.93h-7.13v17.93h-5.77Z"/><path class="e" d="M268.09,537.37v-34.84h-6.67v-5.43h19.12v5.43h-6.67v34.84h-5.77Z"/><path class="e" d="M277.37,537.37l8.99-40.27h4.81l8.99,40.27h-5.77l-1.7-8.65h-7.86l-1.7,8.65h-5.77Zm14.25-14.08l-2.83-14.59h-.11l-2.83,14.59h5.77Z"/><path class="e" d="M321.66,508.69h-5.77v-1.3c0-1.32-.31-2.46-.93-3.42-.62-.96-1.67-1.44-3.14-1.44-.79,0-1.43,.15-1.92,.45-.49,.3-.89,.68-1.19,1.13-.3,.49-.51,1.05-.62,1.67s-.17,1.27-.17,1.95c0,.79,.03,1.45,.08,1.98s.2,1,.42,1.41c.23,.42,.56,.77,.99,1.07,.43,.3,1.03,.6,1.78,.91l4.41,1.75c1.28,.49,2.32,1.07,3.11,1.72,.79,.66,1.41,1.42,1.87,2.29,.42,.91,.7,1.93,.85,3.08,.15,1.15,.23,2.46,.23,3.93,0,1.7-.17,3.27-.51,4.72-.34,1.45-.89,2.69-1.64,3.71-.79,1.06-1.83,1.89-3.11,2.49-1.28,.6-2.85,.91-4.7,.91-1.4,0-2.7-.25-3.9-.74-1.21-.49-2.24-1.17-3.11-2.04-.87-.87-1.56-1.88-2.06-3.03-.51-1.15-.76-2.4-.76-3.76v-2.15h5.77v1.81c0,1.06,.31,2.01,.93,2.86,.62,.85,1.67,1.27,3.14,1.27,.98,0,1.74-.14,2.29-.42,.55-.28,.97-.69,1.27-1.22,.3-.53,.48-1.16,.54-1.9s.08-1.55,.08-2.46c0-1.06-.04-1.92-.11-2.6-.08-.68-.23-1.22-.45-1.64-.26-.41-.61-.75-1.05-1.02-.43-.26-1.01-.55-1.73-.85l-4.13-1.7c-2.49-1.02-4.16-2.37-5.01-4.04-.85-1.68-1.27-3.78-1.27-6.31,0-1.51,.21-2.94,.62-4.3s1.04-2.53,1.87-3.51c.79-.98,1.8-1.76,3.03-2.35,1.22-.58,2.69-.88,4.38-.88,1.43,0,2.74,.26,3.93,.79,1.19,.53,2.22,1.23,3.08,2.09,1.73,1.81,2.6,3.88,2.6,6.22v2.83Z"/><path class="e" d="M329.75,537.37v-34.84h-6.67v-5.43h19.12v5.43h-6.67v34.84h-5.77Z"/><path class="e" d="M344.74,537.37v-40.27h17.2v5.43h-11.43v11.82h9.96v5.43h-9.96v11.82h11.43v5.77h-17.2Z"/></g><g><path class="e" d="M42.23,205.59v-40.27h5.54l7.41,21.33h.11l7.35-21.33h5.6v40.27h-5.77v-24.49h-.11l-5.71,17.31h-2.89l-5.66-17.31h-.11v24.49h-5.77Z"/><path class="e" d="M92.35,165.32v31.22c0,1.32-.24,2.54-.71,3.65-.47,1.11-1.14,2.1-2.01,2.97s-1.87,1.55-3,2.04c-1.13,.49-2.34,.74-3.62,.74s-2.48-.25-3.59-.74c-1.11-.49-2.1-1.17-2.97-2.04-.87-.87-1.55-1.86-2.04-2.97-.49-1.11-.74-2.33-.74-3.65v-31.22h5.77v30.66c0,1.43,.34,2.49,1.02,3.17,.68,.68,1.53,1.02,2.55,1.02s1.87-.34,2.55-1.02c.68-.68,1.02-1.73,1.02-3.17v-30.66h5.77Z"/><path class="e" d="M116.44,176.91h-5.77v-1.3c0-1.32-.31-2.46-.93-3.42-.62-.96-1.67-1.44-3.14-1.44-.79,0-1.43,.15-1.92,.45-.49,.3-.89,.68-1.19,1.13-.3,.49-.51,1.05-.62,1.67-.11,.62-.17,1.27-.17,1.95,0,.79,.03,1.45,.08,1.98,.06,.53,.2,1,.42,1.41,.23,.42,.56,.77,.99,1.07,.43,.3,1.03,.6,1.78,.91l4.41,1.75c1.28,.49,2.32,1.07,3.11,1.73,.79,.66,1.41,1.42,1.87,2.29,.41,.91,.7,1.93,.85,3.08,.15,1.15,.23,2.46,.23,3.93,0,1.7-.17,3.27-.51,4.72-.34,1.45-.89,2.69-1.64,3.71-.79,1.06-1.83,1.89-3.11,2.49-1.28,.6-2.85,.9-4.69,.9-1.4,0-2.7-.25-3.9-.74-1.21-.49-2.24-1.17-3.11-2.04-.87-.87-1.56-1.88-2.06-3.03-.51-1.15-.76-2.4-.76-3.76v-2.15h5.77v1.81c0,1.06,.31,2.01,.93,2.86,.62,.85,1.67,1.27,3.14,1.27,.98,0,1.74-.14,2.29-.42,.55-.28,.97-.69,1.27-1.22,.3-.53,.48-1.16,.54-1.9s.08-1.56,.08-2.46c0-1.06-.04-1.92-.11-2.6-.08-.68-.23-1.23-.45-1.64-.26-.41-.61-.75-1.05-1.02-.43-.26-1.01-.55-1.73-.85l-4.13-1.7c-2.49-1.02-4.16-2.37-5.01-4.04-.85-1.68-1.27-3.78-1.27-6.31,0-1.51,.21-2.94,.62-4.3,.41-1.36,1.04-2.53,1.87-3.51,.79-.98,1.8-1.76,3.03-2.35,1.23-.58,2.69-.88,4.38-.88,1.43,0,2.74,.26,3.93,.79,1.19,.53,2.22,1.23,3.08,2.09,1.73,1.81,2.6,3.88,2.6,6.22v2.83Z"/><path class="e" d="M120.91,205.59v-40.27h5.77v40.27h-5.77Z"/><path class="e" d="M150.61,194.11v2.49c0,1.24-.24,2.42-.71,3.54-.47,1.11-1.12,2.1-1.95,2.97-.83,.87-1.8,1.56-2.91,2.06-1.11,.51-2.31,.76-3.59,.76-1.09,0-2.21-.15-3.34-.45-1.13-.3-2.15-.83-3.05-1.58-.9-.75-1.65-1.73-2.23-2.91-.58-1.19-.88-2.71-.88-4.55v-22.17c0-1.32,.23-2.55,.68-3.68,.45-1.13,1.09-2.11,1.92-2.94,.83-.83,1.82-1.48,2.97-1.95,1.15-.47,2.42-.71,3.82-.71,2.72,0,4.92,.89,6.62,2.66,.83,.87,1.48,1.9,1.95,3.08,.47,1.19,.71,2.48,.71,3.87v2.26h-5.77v-1.92c0-1.13-.32-2.11-.96-2.94-.64-.83-1.51-1.24-2.6-1.24-1.43,0-2.39,.44-2.86,1.33-.47,.89-.71,2.01-.71,3.37v20.59c0,1.17,.25,2.15,.76,2.94,.51,.79,1.42,1.19,2.74,1.19,.38,0,.78-.07,1.22-.2,.43-.13,.84-.35,1.22-.65,.34-.3,.62-.72,.85-1.24,.23-.53,.34-1.19,.34-1.98v-1.98h5.77Z"/><path class="e" d="M195.75,165.32l-6,40.27h-5.43l-4.41-26.13h-.11l-4.36,26.13h-5.43l-6-40.27h6.11l2.88,25.57h.11l4.53-25.57h4.41l4.69,26.19h.11l2.77-26.19h6.11Z"/><path class="e" d="M199.54,205.59v-40.27h5.77v40.27h-5.77Z"/><path class="e" d="M214.7,205.59v-34.84h-6.67v-5.43h19.12v5.43h-6.67v34.84h-5.77Z"/><path class="e" d="M229.68,205.59v-40.27h5.77v17.25h7.13v-17.25h5.77v40.27h-5.77v-17.93h-7.13v17.93h-5.77Z"/><path class="e" d="M268.09,205.59v-34.84h-6.67v-5.43h19.12v5.43h-6.67v34.84h-5.77Z"/><path class="e" d="M277.37,205.59l8.99-40.27h4.81l8.99,40.27h-5.77l-1.7-8.65h-7.86l-1.7,8.65h-5.77Zm14.25-14.08l-2.83-14.59h-.11l-2.83,14.59h5.77Z"/><path class="e" d="M321.66,176.91h-5.77v-1.3c0-1.32-.31-2.46-.93-3.42-.62-.96-1.67-1.44-3.14-1.44-.79,0-1.43,.15-1.92,.45-.49,.3-.89,.68-1.19,1.13-.3,.49-.51,1.05-.62,1.67-.11,.62-.17,1.27-.17,1.95,0,.79,.03,1.45,.08,1.98,.06,.53,.2,1,.42,1.41,.23,.42,.56,.77,.99,1.07,.43,.3,1.03,.6,1.78,.91l4.41,1.75c1.28,.49,2.32,1.07,3.11,1.73,.79,.66,1.41,1.42,1.87,2.29,.42,.91,.7,1.93,.85,3.08,.15,1.15,.23,2.46,.23,3.93,0,1.7-.17,3.27-.51,4.72-.34,1.45-.89,2.69-1.64,3.71-.79,1.06-1.83,1.89-3.11,2.49-1.28,.6-2.85,.9-4.7,.9-1.4,0-2.7-.25-3.9-.74-1.21-.49-2.24-1.17-3.11-2.04-.87-.87-1.56-1.88-2.06-3.03-.51-1.15-.76-2.4-.76-3.76v-2.15h5.77v1.81c0,1.06,.31,2.01,.93,2.86,.62,.85,1.67,1.27,3.14,1.27,.98,0,1.74-.14,2.29-.42,.55-.28,.97-.69,1.27-1.22,.3-.53,.48-1.16,.54-1.9s.08-1.56,.08-2.46c0-1.06-.04-1.92-.11-2.6-.08-.68-.23-1.23-.45-1.64-.26-.41-.61-.75-1.05-1.02-.43-.26-1.01-.55-1.73-.85l-4.13-1.7c-2.49-1.02-4.16-2.37-5.01-4.04-.85-1.68-1.27-3.78-1.27-6.31,0-1.51,.21-2.94,.62-4.3s1.04-2.53,1.87-3.51c.79-.98,1.8-1.76,3.03-2.35,1.22-.58,2.69-.88,4.38-.88,1.43,0,2.74,.26,3.93,.79,1.19,.53,2.22,1.23,3.08,2.09,1.73,1.81,2.6,3.88,2.6,6.22v2.83Z"/><path class="e" d="M329.75,205.59v-34.84h-6.67v-5.43h19.12v5.43h-6.67v34.84h-5.77Z"/><path class="e" d="M344.74,205.59v-40.27h17.2v5.43h-11.43v11.82h9.96v5.43h-9.96v11.82h11.43v5.77h-17.2Z"/></g><g><path class="e" d="M42.23,271.95v-40.27h5.54l7.41,21.33h.11l7.35-21.33h5.6v40.27h-5.77v-24.49h-.11l-5.71,17.31h-2.89l-5.66-17.31h-.11v24.49h-5.77Z"/><path class="e" d="M92.35,231.67v31.22c0,1.32-.24,2.54-.71,3.65-.47,1.11-1.14,2.1-2.01,2.97s-1.87,1.55-3,2.04c-1.13,.49-2.34,.74-3.62,.74s-2.48-.25-3.59-.74c-1.11-.49-2.1-1.17-2.97-2.04-.87-.87-1.55-1.86-2.04-2.97-.49-1.11-.74-2.33-.74-3.65v-31.22h5.77v30.66c0,1.43,.34,2.49,1.02,3.17,.68,.68,1.53,1.02,2.55,1.02s1.87-.34,2.55-1.02c.68-.68,1.02-1.73,1.02-3.17v-30.66h5.77Z"/><path class="e" d="M116.44,243.27h-5.77v-1.3c0-1.32-.31-2.46-.93-3.42-.62-.96-1.67-1.44-3.14-1.44-.79,0-1.43,.15-1.92,.45-.49,.3-.89,.68-1.19,1.13-.3,.49-.51,1.05-.62,1.67-.11,.62-.17,1.27-.17,1.95,0,.79,.03,1.45,.08,1.98,.06,.53,.2,1,.42,1.41,.23,.42,.56,.77,.99,1.07,.43,.3,1.03,.6,1.78,.91l4.41,1.75c1.28,.49,2.32,1.07,3.11,1.73,.79,.66,1.41,1.42,1.87,2.29,.41,.91,.7,1.93,.85,3.08,.15,1.15,.23,2.46,.23,3.93,0,1.7-.17,3.27-.51,4.72-.34,1.45-.89,2.69-1.64,3.71-.79,1.06-1.83,1.89-3.11,2.49-1.28,.6-2.85,.9-4.69,.9-1.4,0-2.7-.25-3.9-.74-1.21-.49-2.24-1.17-3.11-2.04-.87-.87-1.56-1.88-2.06-3.03-.51-1.15-.76-2.4-.76-3.76v-2.15h5.77v1.81c0,1.06,.31,2.01,.93,2.86,.62,.85,1.67,1.27,3.14,1.27,.98,0,1.74-.14,2.29-.42,.55-.28,.97-.69,1.27-1.22,.3-.53,.48-1.16,.54-1.9s.08-1.56,.08-2.46c0-1.06-.04-1.92-.11-2.6-.08-.68-.23-1.23-.45-1.64-.26-.41-.61-.75-1.05-1.02-.43-.26-1.01-.55-1.73-.85l-4.13-1.7c-2.49-1.02-4.16-2.37-5.01-4.04-.85-1.68-1.27-3.78-1.27-6.31,0-1.51,.21-2.94,.62-4.3,.41-1.36,1.04-2.53,1.87-3.51,.79-.98,1.8-1.76,3.03-2.35,1.23-.58,2.69-.88,4.38-.88,1.43,0,2.74,.26,3.93,.79,1.19,.53,2.22,1.23,3.08,2.09,1.73,1.81,2.6,3.88,2.6,6.22v2.83Z"/><path class="e" d="M120.91,271.95v-40.27h5.77v40.27h-5.77Z"/><path class="e" d="M150.61,260.46v2.49c0,1.24-.24,2.42-.71,3.54-.47,1.11-1.12,2.1-1.95,2.97-.83,.87-1.8,1.56-2.91,2.06-1.11,.51-2.31,.76-3.59,.76-1.09,0-2.21-.15-3.34-.45-1.13-.3-2.15-.83-3.05-1.58-.9-.75-1.65-1.73-2.23-2.91-.58-1.19-.88-2.71-.88-4.55v-22.17c0-1.32,.23-2.55,.68-3.68,.45-1.13,1.09-2.11,1.92-2.94,.83-.83,1.82-1.48,2.97-1.95,1.15-.47,2.42-.71,3.82-.71,2.72,0,4.92,.89,6.62,2.66,.83,.87,1.48,1.9,1.95,3.08,.47,1.19,.71,2.48,.71,3.87v2.26h-5.77v-1.92c0-1.13-.32-2.11-.96-2.94-.64-.83-1.51-1.24-2.6-1.24-1.43,0-2.39,.44-2.86,1.33-.47,.89-.71,2.01-.71,3.37v20.59c0,1.17,.25,2.15,.76,2.94,.51,.79,1.42,1.19,2.74,1.19,.38,0,.78-.07,1.22-.2,.43-.13,.84-.35,1.22-.65,.34-.3,.62-.72,.85-1.24,.23-.53,.34-1.19,.34-1.98v-1.98h5.77Z"/><path class="e" d="M195.75,231.67l-6,40.27h-5.43l-4.41-26.13h-.11l-4.36,26.13h-5.43l-6-40.27h6.11l2.88,25.57h.11l4.53-25.57h4.41l4.69,26.19h.11l2.77-26.19h6.11Z"/><path class="e" d="M199.54,271.95v-40.27h5.77v40.27h-5.77Z"/><path class="e" d="M214.7,271.95v-34.84h-6.67v-5.43h19.12v5.43h-6.67v34.84h-5.77Z"/><path class="e" d="M229.69,271.95v-40.27h5.77v17.25h7.13v-17.25h5.77v40.27h-5.77v-17.93h-7.13v17.93h-5.77Z"/><path class="e" d="M268.09,271.95v-34.84h-6.67v-5.43h19.12v5.43h-6.67v34.84h-5.77Z"/><path class="e" d="M277.37,271.95l8.99-40.27h4.81l8.99,40.27h-5.77l-1.7-8.65h-7.86l-1.7,8.65h-5.77Zm14.25-14.08l-2.83-14.59h-.11l-2.83,14.59h5.77Z"/><path class="e" d="M321.66,243.27h-5.77v-1.3c0-1.32-.31-2.46-.93-3.42-.62-.96-1.67-1.44-3.14-1.44-.79,0-1.43,.15-1.92,.45-.49,.3-.89,.68-1.19,1.13-.3,.49-.51,1.05-.62,1.67-.11,.62-.17,1.27-.17,1.95,0,.79,.03,1.45,.08,1.98,.06,.53,.2,1,.42,1.41,.23,.42,.56,.77,.99,1.07,.43,.3,1.03,.6,1.78,.91l4.41,1.75c1.28,.49,2.32,1.07,3.11,1.73,.79,.66,1.41,1.42,1.87,2.29,.42,.91,.7,1.93,.85,3.08,.15,1.15,.23,2.46,.23,3.93,0,1.7-.17,3.27-.51,4.72-.34,1.45-.89,2.69-1.64,3.71-.79,1.06-1.83,1.89-3.11,2.49-1.28,.6-2.85,.9-4.7,.9-1.4,0-2.7-.25-3.9-.74-1.21-.49-2.24-1.17-3.11-2.04-.87-.87-1.56-1.88-2.06-3.03-.51-1.15-.76-2.4-.76-3.76v-2.15h5.77v1.81c0,1.06,.31,2.01,.93,2.86,.62,.85,1.67,1.27,3.14,1.27,.98,0,1.74-.14,2.29-.42,.55-.28,.97-.69,1.27-1.22,.3-.53,.48-1.16,.54-1.9s.08-1.56,.08-2.46c0-1.06-.04-1.92-.11-2.6-.08-.68-.23-1.23-.45-1.64-.26-.41-.61-.75-1.05-1.02-.43-.26-1.01-.55-1.73-.85l-4.13-1.7c-2.49-1.02-4.16-2.37-5.01-4.04-.85-1.68-1.27-3.78-1.27-6.31,0-1.51,.21-2.94,.62-4.3s1.04-2.53,1.87-3.51c.79-.98,1.8-1.76,3.03-2.35,1.22-.58,2.69-.88,4.38-.88,1.43,0,2.74,.26,3.93,.79,1.19,.53,2.22,1.23,3.08,2.09,1.73,1.81,2.6,3.88,2.6,6.22v2.83Z"/><path class="e" d="M329.75,271.95v-34.84h-6.67v-5.43h19.12v5.43h-6.67v34.84h-5.77Z"/><path class="e" d="M344.74,271.95v-40.27h17.2v5.43h-11.43v11.82h9.96v5.43h-9.96v11.82h11.43v5.77h-17.2Z"/></g><g><path class="d" d="M42.23,139.23v-40.27h5.54l7.41,21.33h.11l7.35-21.33h5.6v40.27h-5.77v-24.49h-.11l-5.71,17.31h-2.89l-5.66-17.31h-.11v24.49h-5.77Z"/><path class="d" d="M92.35,98.96v31.22c0,1.32-.24,2.54-.71,3.65-.47,1.11-1.14,2.1-2.01,2.97s-1.87,1.55-3,2.04c-1.13,.49-2.34,.74-3.62,.74s-2.48-.25-3.59-.74c-1.11-.49-2.1-1.17-2.97-2.04-.87-.87-1.55-1.86-2.04-2.97-.49-1.11-.74-2.33-.74-3.65v-31.22h5.77v30.66c0,1.43,.34,2.49,1.02,3.17,.68,.68,1.53,1.02,2.55,1.02s1.87-.34,2.55-1.02c.68-.68,1.02-1.73,1.02-3.17v-30.66h5.77Z"/><path class="d" d="M116.44,110.56h-5.77v-1.3c0-1.32-.31-2.46-.93-3.42-.62-.96-1.67-1.44-3.14-1.44-.79,0-1.43,.15-1.92,.45-.49,.3-.89,.68-1.19,1.13-.3,.49-.51,1.05-.62,1.67-.11,.62-.17,1.27-.17,1.95,0,.79,.03,1.45,.08,1.98,.06,.53,.2,1,.42,1.41,.23,.42,.56,.77,.99,1.07,.43,.3,1.03,.6,1.78,.91l4.41,1.75c1.28,.49,2.32,1.07,3.11,1.73,.79,.66,1.41,1.42,1.87,2.29,.41,.91,.7,1.93,.85,3.08,.15,1.15,.23,2.46,.23,3.93,0,1.7-.17,3.27-.51,4.72-.34,1.45-.89,2.69-1.64,3.71-.79,1.06-1.83,1.89-3.11,2.49-1.28,.6-2.85,.9-4.69,.9-1.4,0-2.7-.25-3.9-.74-1.21-.49-2.24-1.17-3.11-2.04-.87-.87-1.56-1.88-2.06-3.03-.51-1.15-.76-2.4-.76-3.76v-2.15h5.77v1.81c0,1.06,.31,2.01,.93,2.86,.62,.85,1.67,1.27,3.14,1.27,.98,0,1.74-.14,2.29-.42,.55-.28,.97-.69,1.27-1.22,.3-.53,.48-1.16,.54-1.9s.08-1.56,.08-2.46c0-1.06-.04-1.92-.11-2.6-.08-.68-.23-1.23-.45-1.64-.26-.41-.61-.75-1.05-1.02-.43-.26-1.01-.55-1.73-.85l-4.13-1.7c-2.49-1.02-4.16-2.37-5.01-4.04-.85-1.68-1.27-3.78-1.27-6.31,0-1.51,.21-2.94,.62-4.3,.41-1.36,1.04-2.53,1.87-3.51,.79-.98,1.8-1.76,3.03-2.35,1.23-.58,2.69-.88,4.38-.88,1.43,0,2.74,.26,3.93,.79,1.19,.53,2.22,1.23,3.08,2.09,1.73,1.81,2.6,3.88,2.6,6.22v2.83Z"/><path class="d" d="M120.91,139.23v-40.27h5.77v40.27h-5.77Z"/><path class="d" d="M150.61,127.75v2.49c0,1.24-.24,2.42-.71,3.54-.47,1.11-1.12,2.1-1.95,2.97-.83,.87-1.8,1.56-2.91,2.06-1.11,.51-2.31,.76-3.59,.76-1.09,0-2.21-.15-3.34-.45-1.13-.3-2.15-.83-3.05-1.58-.9-.75-1.65-1.73-2.23-2.91-.58-1.19-.88-2.71-.88-4.55v-22.17c0-1.32,.23-2.55,.68-3.68,.45-1.13,1.09-2.11,1.92-2.94,.83-.83,1.82-1.48,2.97-1.95,1.15-.47,2.42-.71,3.82-.71,2.72,0,4.92,.89,6.62,2.66,.83,.87,1.48,1.9,1.95,3.08,.47,1.19,.71,2.48,.71,3.87v2.26h-5.77v-1.92c0-1.13-.32-2.11-.96-2.94-.64-.83-1.51-1.24-2.6-1.24-1.43,0-2.39,.44-2.86,1.33-.47,.89-.71,2.01-.71,3.37v20.59c0,1.17,.25,2.15,.76,2.94,.51,.79,1.42,1.19,2.74,1.19,.38,0,.78-.07,1.22-.2,.43-.13,.84-.35,1.22-.65,.34-.3,.62-.72,.85-1.24,.23-.53,.34-1.19,.34-1.98v-1.98h5.77Z"/><path class="d" d="M195.75,98.96l-6,40.27h-5.43l-4.41-26.13h-.11l-4.36,26.13h-5.43l-6-40.27h6.11l2.88,25.57h.11l4.53-25.57h4.41l4.69,26.19h.11l2.77-26.19h6.11Z"/><path class="d" d="M199.54,139.23v-40.27h5.77v40.27h-5.77Z"/><path class="d" d="M214.7,139.23v-34.84h-6.67v-5.43h19.12v5.43h-6.67v34.84h-5.77Z"/><path class="d" d="M229.69,139.23v-40.27h5.77v17.25h7.13v-17.25h5.77v40.27h-5.77v-17.93h-7.13v17.93h-5.77Z"/><path class="g" d="M268.09,139.23v-34.84h-6.67v-5.43h19.12v5.43h-6.67v34.84h-5.77Z"/><path class="g" d="M277.37,139.23l8.99-40.27h4.81l8.99,40.27h-5.77l-1.7-8.65h-7.86l-1.7,8.65h-5.77Zm14.25-14.08l-2.83-14.59h-.11l-2.83,14.59h5.77Z"/><path class="g" d="M321.66,110.56h-5.77v-1.3c0-1.32-.31-2.46-.93-3.42-.62-.96-1.67-1.44-3.14-1.44-.79,0-1.43,.15-1.92,.45-.49,.3-.89,.68-1.19,1.13-.3,.49-.51,1.05-.62,1.67-.11,.62-.17,1.27-.17,1.95,0,.79,.03,1.45,.08,1.98,.06,.53,.2,1,.42,1.41,.23,.42,.56,.77,.99,1.07,.43,.3,1.03,.6,1.78,.91l4.41,1.75c1.28,.49,2.32,1.07,3.11,1.73,.79,.66,1.41,1.42,1.87,2.29,.42,.91,.7,1.93,.85,3.08,.15,1.15,.23,2.46,.23,3.93,0,1.7-.17,3.27-.51,4.72-.34,1.45-.89,2.69-1.64,3.71-.79,1.06-1.83,1.89-3.11,2.49-1.28,.6-2.85,.9-4.7,.9-1.4,0-2.7-.25-3.9-.74-1.21-.49-2.24-1.17-3.11-2.04-.87-.87-1.56-1.88-2.06-3.03-.51-1.15-.76-2.4-.76-3.76v-2.15h5.77v1.81c0,1.06,.31,2.01,.93,2.86,.62,.85,1.67,1.27,3.14,1.27,.98,0,1.74-.14,2.29-.42,.55-.28,.97-.69,1.27-1.22,.3-.53,.48-1.16,.54-1.9s.08-1.56,.08-2.46c0-1.06-.04-1.92-.11-2.6-.08-.68-.23-1.23-.45-1.64-.26-.41-.61-.75-1.05-1.02-.43-.26-1.01-.55-1.73-.85l-4.13-1.7c-2.49-1.02-4.16-2.37-5.01-4.04-.85-1.68-1.27-3.78-1.27-6.31,0-1.51,.21-2.94,.62-4.3s1.04-2.53,1.87-3.51c.79-.98,1.8-1.76,3.03-2.35,1.22-.58,2.69-.88,4.38-.88,1.43,0,2.74,.26,3.93,.79,1.19,.53,2.22,1.23,3.08,2.09,1.73,1.81,2.6,3.88,2.6,6.22v2.83Z"/><path class="g" d="M329.75,139.23v-34.84h-6.67v-5.43h19.12v5.43h-6.67v34.84h-5.77Z"/><path class="g" d="M344.74,139.23v-40.27h17.2v5.43h-11.43v11.82h9.96v5.43h-9.96v11.82h11.43v5.77h-17.2Z"/></g><g><path class="e" d="M42.23,72.88V32.6h5.54l7.41,21.33h.11l7.35-21.33h5.6v40.27h-5.77v-24.49h-.11l-5.71,17.31h-2.89l-5.66-17.31h-.11v24.49h-5.77Z"/><path class="e" d="M92.35,32.6v31.22c0,1.32-.24,2.54-.71,3.65-.47,1.11-1.14,2.1-2.01,2.97-.87,.87-1.87,1.55-3,2.04s-2.34,.74-3.62,.74-2.48-.25-3.59-.74c-1.11-.49-2.1-1.17-2.97-2.04-.87-.87-1.55-1.86-2.04-2.97-.49-1.11-.74-2.33-.74-3.65v-31.22h5.77v30.66c0,1.43,.34,2.49,1.02,3.17,.68,.68,1.53,1.02,2.55,1.02s1.87-.34,2.54-1.02c.68-.68,1.02-1.73,1.02-3.17v-30.66h5.77Z"/><path class="e" d="M116.44,44.2h-5.77v-1.3c0-1.32-.31-2.46-.93-3.42-.62-.96-1.67-1.44-3.14-1.44-.79,0-1.43,.15-1.92,.45-.49,.3-.89,.68-1.19,1.13-.3,.49-.51,1.05-.62,1.67-.11,.62-.17,1.27-.17,1.95,0,.79,.03,1.45,.08,1.98,.06,.53,.2,1,.42,1.41,.23,.42,.56,.77,.99,1.07,.43,.3,1.03,.6,1.78,.91l4.41,1.75c1.28,.49,2.32,1.07,3.11,1.73,.79,.66,1.41,1.42,1.87,2.29,.41,.91,.7,1.93,.85,3.08,.15,1.15,.23,2.46,.23,3.93,0,1.7-.17,3.27-.51,4.72-.34,1.45-.89,2.69-1.64,3.71-.79,1.06-1.83,1.89-3.11,2.49-1.28,.6-2.85,.9-4.69,.9-1.4,0-2.7-.25-3.9-.74-1.21-.49-2.24-1.17-3.11-2.04-.87-.87-1.56-1.88-2.06-3.03-.51-1.15-.76-2.4-.76-3.76v-2.15h5.77v1.81c0,1.06,.31,2.01,.93,2.86s1.67,1.27,3.14,1.27c.98,0,1.74-.14,2.29-.42,.55-.28,.97-.69,1.27-1.22,.3-.53,.48-1.16,.54-1.9s.08-1.56,.08-2.46c0-1.06-.04-1.92-.11-2.6-.08-.68-.23-1.23-.45-1.64-.26-.41-.61-.75-1.05-1.02-.43-.26-1.01-.55-1.72-.85l-4.13-1.7c-2.49-1.02-4.16-2.37-5.01-4.04-.85-1.68-1.27-3.78-1.27-6.31,0-1.51,.21-2.94,.62-4.3,.41-1.36,1.04-2.53,1.87-3.51,.79-.98,1.8-1.76,3.03-2.35,1.23-.58,2.69-.88,4.38-.88,1.43,0,2.74,.26,3.93,.79,1.19,.53,2.21,1.23,3.08,2.09,1.73,1.81,2.6,3.88,2.6,6.22v2.83Z"/><path class="e" d="M120.91,72.88V32.6h5.77v40.27h-5.77Z"/><path class="e" d="M150.61,61.4v2.49c0,1.24-.24,2.42-.71,3.54-.47,1.11-1.12,2.1-1.95,2.97-.83,.87-1.8,1.56-2.91,2.06-1.11,.51-2.31,.76-3.59,.76-1.09,0-2.21-.15-3.34-.45-1.13-.3-2.15-.83-3.05-1.58-.91-.75-1.65-1.73-2.23-2.91-.58-1.19-.88-2.71-.88-4.55v-22.17c0-1.32,.23-2.55,.68-3.68s1.09-2.11,1.92-2.94c.83-.83,1.82-1.48,2.97-1.95,1.15-.47,2.42-.71,3.82-.71,2.72,0,4.92,.89,6.62,2.66,.83,.87,1.48,1.9,1.95,3.08,.47,1.19,.71,2.48,.71,3.87v2.26h-5.77v-1.92c0-1.13-.32-2.11-.96-2.94-.64-.83-1.51-1.24-2.6-1.24-1.43,0-2.38,.44-2.86,1.33-.47,.89-.71,2.01-.71,3.37v20.59c0,1.17,.25,2.15,.76,2.94s1.42,1.19,2.74,1.19c.38,0,.78-.07,1.22-.2,.43-.13,.84-.35,1.22-.65,.34-.3,.62-.72,.85-1.24,.23-.53,.34-1.19,.34-1.98v-1.98h5.77Z"/><path class="e" d="M195.75,32.6l-6,40.27h-5.43l-4.41-26.13h-.11l-4.36,26.13h-5.43l-6-40.27h6.11l2.88,25.57h.11l4.53-25.57h4.41l4.69,26.19h.11l2.77-26.19h6.11Z"/><path class="e" d="M199.54,72.88V32.6h5.77v40.27h-5.77Z"/><path class="e" d="M214.7,72.88V38.03h-6.67v-5.43h19.12v5.43h-6.67v34.84h-5.77Z"/><path class="e" d="M229.68,72.88V32.6h5.77v17.25h7.13v-17.25h5.77v40.27h-5.77v-17.93h-7.13v17.93h-5.77Z"/><path class="e" d="M268.09,72.88V38.03h-6.67v-5.43h19.12v5.43h-6.67v34.84h-5.77Z"/><path class="e" d="M277.37,72.88l8.99-40.27h4.81l8.99,40.27h-5.77l-1.7-8.65h-7.86l-1.7,8.65h-5.77Zm14.25-14.08l-2.83-14.59h-.11l-2.83,14.59h5.77Z"/><path class="e" d="M321.66,44.2h-5.77v-1.3c0-1.32-.31-2.46-.93-3.42-.62-.96-1.67-1.44-3.14-1.44-.79,0-1.43,.15-1.92,.45-.49,.3-.89,.68-1.19,1.13-.3,.49-.51,1.05-.62,1.67-.11,.62-.17,1.27-.17,1.95,0,.79,.03,1.45,.08,1.98,.06,.53,.2,1,.42,1.41,.23,.42,.56,.77,.99,1.07,.43,.3,1.03,.6,1.78,.91l4.41,1.75c1.28,.49,2.32,1.07,3.11,1.73,.79,.66,1.41,1.42,1.87,2.29,.42,.91,.7,1.93,.85,3.08,.15,1.15,.23,2.46,.23,3.93,0,1.7-.17,3.27-.51,4.72-.34,1.45-.89,2.69-1.64,3.71-.79,1.06-1.83,1.89-3.11,2.49-1.28,.6-2.85,.9-4.7,.9-1.4,0-2.7-.25-3.9-.74-1.21-.49-2.24-1.17-3.11-2.04-.87-.87-1.56-1.88-2.06-3.03-.51-1.15-.76-2.4-.76-3.76v-2.15h5.77v1.81c0,1.06,.31,2.01,.93,2.86,.62,.85,1.67,1.27,3.14,1.27,.98,0,1.74-.14,2.29-.42,.55-.28,.97-.69,1.27-1.22,.3-.53,.48-1.16,.54-1.9s.08-1.56,.08-2.46c0-1.06-.04-1.92-.11-2.6-.08-.68-.23-1.23-.45-1.64-.26-.41-.61-.75-1.05-1.02-.43-.26-1.01-.55-1.73-.85l-4.13-1.7c-2.49-1.02-4.16-2.37-5.01-4.04-.85-1.68-1.27-3.78-1.27-6.31,0-1.51,.21-2.94,.62-4.3s1.04-2.53,1.87-3.51c.79-.98,1.8-1.76,3.03-2.35,1.22-.58,2.69-.88,4.38-.88,1.43,0,2.74,.26,3.93,.79,1.19,.53,2.22,1.23,3.08,2.09,1.73,1.81,2.6,3.88,2.6,6.22v2.83Z"/><path class="e" d="M329.75,72.88V38.03h-6.67v-5.43h19.12v5.43h-6.67v34.84h-5.77Z"/><path class="e" d="M344.74,72.88V32.6h17.2v5.43h-11.43v11.82h9.96v5.43h-9.96v11.82h11.43v5.77h-17.2Z"/></g><g><circle class="c" cx="280.94" cy="480.9" r="170.97"/><g><circle class="b" cx="295.03" cy="473" r="170.97"/><path class="d" d="M225.47,470.19l153.06,41.67-11.51,42.28c-14.45,53.06-49.2,68.12-94.87,55.69-46.93-12.78-72.12-46.2-57.21-100.96l10.53-38.69Zm-2.33,42.74c-11.68,42.92,5.85,73.58,50.88,85.84,51.37,13.99,73.56-7.45,84.55-47.83l8.52-31.29-135.72-36.95-8.23,30.23Z"/><path class="d" d="M186.45,378.64c9.76-3.78,22.55-6.96,36.8-3.73,14.17,3.21,24.56,11.72,32.35,20.31l-2.12,9.34c-9.31-9.6-18.95-17.03-32.25-20.04-14.33-3.25-25.73-.33-37,3.52l2.21-9.4Z"/><path class="d" d="M347.73,415.18c9.76-3.78,22.55-6.96,36.8-3.73,14.17,3.21,24.56,11.72,32.35,20.31l-2.12,9.34c-9.31-9.6-18.95-17.03-32.25-20.04-14.33-3.25-25.73-.33-37,3.52l2.21-9.4Z"/><path class="d" d="M526.93,489.83c-4.59,35.04-34.99,59.96-67.9,55.66-32.66-4.28-16.56-129.25,15.85-127-21.61-69.1-94.26-125.18-167.94-134.83-73.14-9.58-154.93,26.82-193.05,87.85,.44,.05,.88,.09,1.31,.15,32.92,4.31,16.3,131.23-16.62,126.92-32.91-4.31-55.87-36.22-51.28-71.26,3.53-26.98,22.36-47.95,45.85-54.22,34.97-77.74,120.73-113.82,215.25-101.44,93.48,12.24,166.47,68.07,181.39,150.66,25.06,10.26,41.03,37.75,37.13,67.51Z"/><path class="g" d="M272.37,311.38s-41.87-21.52-30.34-44.57c1.31-2.62,52.06,12.48,72.46,44.17"/></g></g><g><circle class="c" cx="460.85" cy="113.94" r="42.44"/><g><circle class="b" cx="457.36" cy="111.98" r="42.44"/><path class="d" d="M477.26,120.99c3.7,13.59-2.55,21.89-14.21,25.07-11.34,3.09-19.97-.65-23.55-13.83l-2.86-10.5,38-10.35,2.62,9.6Zm-4.08-6.5l-33.7,9.17,2.12,7.77c2.73,10.03,8.24,15.35,20.99,11.87,11.18-3.04,15.53-10.66,12.63-21.31l-2.04-7.5Z"/><path class="d" d="M484.87,90.97c-2.8-.96-5.63-1.68-9.19-.88-3.3,.75-5.7,2.59-8.01,4.98l-.53-2.32c1.94-2.13,4.52-4.25,8.03-5.04,3.54-.8,6.71-.01,9.14,.93l.55,2.34Z"/><path class="d" d="M444.83,100.04c-2.8-.96-5.63-1.68-9.19-.88-3.3,.75-5.7,2.59-8.01,4.98l-.53-2.32c1.93-2.13,4.51-4.25,8.03-5.04,3.54-.8,6.71-.01,9.14,.93l.55,2.34Z"/><path class="d" d="M399.79,116.15c1.14,8.7,8.69,14.89,16.86,13.82,8.11-1.06,4.11-32.09-3.94-31.53,5.36-17.15,23.4-31.07,41.69-33.47,18.16-2.38,38.46,6.66,47.92,21.81-.11,.01-.22,.02-.33,.04-8.17,1.07-4.05,32.58,4.13,31.51s13.87-8.99,12.73-17.69c-.88-6.7-5.55-11.9-11.38-13.46-8.68-19.3-29.97-28.25-53.44-25.18s-41.33,16.9-45.03,37.4c-6.22,2.55-10.18,9.37-9.22,16.76Z"/><path class="g" d="M462.98,71.86s10.39-5.34,7.53-11.06c-.32-.65-12.92,3.1-17.99,10.96"/></g></g></svg>